<?xml version="1.0" encoding="utf-8"?>
<svg xmlns="http://www.w3.org/2000/svg" viewBox="0 0 24 24" width="384" height="384">
  <rect width="14" height="14" x="5" y="5" opacity=".35" fill="#920000" />
  <path d="M18,3H6C4.343,3,3,4.343,3,6v12c0,1.657,1.343,3,3,3h12c1.657,0,3-1.343,3-3V6C21,4.343,19.657,3,18,3z M16.561,16.561c-0.586,0.586-1.536,0.586-2.121,0c-0.073-0.073-1.152-1.152-2.439-2.439c-1.288,1.288-2.367,2.367-2.439,2.439c-0.586,0.586-1.536,0.586-2.121,0c-0.586-0.586-0.586-1.536,0-2.121C7.512,14.367,8.591,13.288,9.879,12c-1.288-1.288-2.367-2.367-2.439-2.439c-0.586-0.586-0.586-1.536,0-2.121c0.586-0.586,1.536-0.586,2.121,0C9.633,7.512,10.712,8.591,12,9.879c1.288-1.288,2.367-2.367,2.439-2.439c0.586-0.586,1.536-0.586,2.121,0c0.586,0.586,0.586,1.536,0,2.121c-0.073,0.073-1.152,1.152-2.439,2.439c1.288,1.288,2.367,2.367,2.439,2.439C17.146,15.025,17.146,15.975,16.561,16.561z" fill="#920000" />
</svg>